<?xml version="1.0" encoding="UTF-8" standalone="no"?>
<!-- Creator: CorelDRAW X5 -->

<svg
   xmlns:dc="http://purl.org/dc/elements/1.1/"
   xmlns:cc="http://creativecommons.org/ns#"
   xmlns:rdf="http://www.w3.org/1999/02/22-rdf-syntax-ns#"
   xmlns:svg="http://www.w3.org/2000/svg"
   xmlns="http://www.w3.org/2000/svg"
   xmlns:sodipodi="http://sodipodi.sourceforge.net/DTD/sodipodi-0.dtd"
   xmlns:inkscape="http://www.inkscape.org/namespaces/inkscape"
   xml:space="preserve"
   width="80.7102mm"
   height="25.3103mm"
   style="shape-rendering:geometricPrecision; text-rendering:geometricPrecision; image-rendering:optimizeQuality; fill-rule:evenodd; clip-rule:evenodd"
   viewBox="0 0 8071 2531"
   id="svg2"
   version="1.1"
   inkscape:version="0.92.3 (2405546, 2018-03-11)"
   sodipodi:docname="logo_ifmt_branco.svg"
   inkscape:export-filename="/var/www/html/eventosifmt/assets/site/imagens/logo_ifmt_branco.png"
   inkscape:export-xdpi="90"
   inkscape:export-ydpi="90"><metadata
     id="metadata61"><rdf:RDF><cc:Work
         rdf:about=""><dc:format>image/svg+xml</dc:format><dc:type
           rdf:resource="http://purl.org/dc/dcmitype/StillImage" /><dc:title /></cc:Work></rdf:RDF></metadata><sodipodi:namedview
     pagecolor="#ffffff"
     bordercolor="#666666"
     borderopacity="1"
     objecttolerance="10"
     gridtolerance="10"
     guidetolerance="10"
     inkscape:pageopacity="0"
     inkscape:pageshadow="2"
     inkscape:window-width="1366"
     inkscape:window-height="705"
     id="namedview59"
     showgrid="false"
     inkscape:zoom="2.9027918"
     inkscape:cx="113.59882"
     inkscape:cy="7.7840567"
     inkscape:window-x="-8"
     inkscape:window-y="-8"
     inkscape:window-maximized="1"
     inkscape:current-layer="Camada_x0020_1" /><defs
     id="defs4"><style
       type="text/css"
       id="style6"><![CDATA[
    .fil0 {fill:white}
    .fil3 {fill:#373435;fill-rule:nonzero}
    .fil4 {fill:black;fill-rule:nonzero}
    .fil1 {fill:#32A041;fill-rule:nonzero}
    .fil2 {fill:#C8191E;fill-rule:nonzero}
   ]]></style></defs><g
     id="Camada_x0020_1"><metadata
       id="CorelCorpID_0Corel-Layer" /><g
       id="g15"
       transform="matrix(0.94258267,0,0,1.0069215,298.81628,-123.26253)"
       style="fill:#ffffff;opacity:1;fill-opacity:1"><path
         class="fil1"
         d="m 1689,1650 c 0,21 -17,37 -37,37 l -308,0 c -21,0 -37,-17 -37,-37 l 0,-308 c 0,-21 17,-37 37,-37 l 308,0 c 21,0 37,17 37,37 l 0,308 z"
         id="path17"
         inkscape:connector-curvature="0"
         style="fill:#ffffff;fill-rule:nonzero;fill-opacity:1" /><path
         class="fil1"
         d="m 1230,731 c 0,21 -17,37 -37,37 l -308,0 c -21,0 -37,-17 -37,-37 l 0,-308 c 0,-21 17,-37 37,-37 l 308,0 c 21,0 37,17 37,37 l 0,308 z"
         id="path19"
         inkscape:connector-curvature="0"
         style="fill:#ffffff;fill-rule:nonzero;fill-opacity:1" /><path
         class="fil1"
         d="m 1689,731 c 0,21 -17,37 -37,37 l -308,0 c -21,0 -37,-17 -37,-37 l 0,-308 c 0,-21 17,-37 37,-37 l 308,0 c 21,0 37,17 37,37 l 0,308 z"
         id="path21"
         inkscape:connector-curvature="0"
         style="fill:#ffffff;fill-rule:nonzero;fill-opacity:1" /><path
         class="fil1"
         d="m 771,1190 c 0,21 -17,37 -37,37 l -308,0 c -21,0 -37,-17 -37,-37 l 0,-308 c 0,-21 17,-37 37,-37 l 308,0 c 21,0 37,17 37,37 l 0,308 z"
         id="path23"
         inkscape:connector-curvature="0"
         style="fill:#ffffff;fill-rule:nonzero;fill-opacity:1" /><path
         class="fil1"
         d="m 1230,1190 c 0,21 -17,37 -37,37 l -308,0 c -21,0 -37,-17 -37,-37 l 0,-308 c 0,-21 17,-37 37,-37 l 308,0 c 21,0 37,17 37,37 l 0,308 z"
         id="path25"
         inkscape:connector-curvature="0"
         style="fill:#ffffff;fill-rule:nonzero;fill-opacity:1" /><path
         class="fil1"
         d="m 771,1650 c 0,21 -17,37 -37,37 l -308,0 c -21,0 -37,-17 -37,-37 l 0,-308 c 0,-21 17,-37 37,-37 l 308,0 c 21,0 37,17 37,37 l 0,308 z"
         id="path27"
         inkscape:connector-curvature="0"
         style="fill:#ffffff;fill-rule:nonzero;fill-opacity:1" /><path
         class="fil1"
         d="m 1230,1650 c 0,21 -17,37 -37,37 l -308,0 c -21,0 -37,-17 -37,-37 l 0,-308 c 0,-21 17,-37 37,-37 l 308,0 c 21,0 37,17 37,37 l 0,308 z"
         id="path29"
         inkscape:connector-curvature="0"
         style="fill:#ffffff;fill-rule:nonzero;fill-opacity:1" /><path
         class="fil1"
         d="m 771,2109 c 0,21 -17,37 -37,37 l -308,0 c -21,0 -37,-17 -37,-37 l 0,-308 c 0,-21 17,-37 37,-37 l 308,0 c 21,0 37,17 37,37 l 0,308 z"
         id="path31"
         inkscape:connector-curvature="0"
         style="fill:#ffffff;fill-rule:nonzero;fill-opacity:1" /><path
         class="fil1"
         d="m 1230,2109 c 0,21 -17,37 -37,37 l -308,0 c -21,0 -37,-17 -37,-37 l 0,-308 c 0,-21 17,-37 37,-37 l 308,0 c 21,0 37,17 37,37 l 0,308 z"
         id="path33"
         inkscape:connector-curvature="0"
         style="fill:#ffffff;fill-rule:nonzero;fill-opacity:1" /><path
         class="fil2"
         d="m 790,577 c 0,116 -94,210 -210,210 -116,0 -210,-94 -210,-210 0,-116 94,-211 210,-211 116,0 210,94 210,211 z"
         id="path35"
         inkscape:connector-curvature="0"
         style="fill:#ffffff;fill-rule:nonzero;fill-opacity:1" /></g><polygon
       class="fil3"
       points="2038,838 2038,1219 1957,1219 1957,838 "
       id="polygon37"
       style="fill:#ffffff;fill-rule:nonzero;opacity:1;fill-opacity:1"
       transform="matrix(0.94258267,0,0,1.0069215,298.81628,-123.26253)" /><path
       class="fil4"
       d="m 2629.8233,1104.1747 -97.0861,0 -156.4686,-289.99326 -1.8852,0 c 2.8278,51.35293 4.7128,87.60204 4.7128,109.75444 l 0,180.23882 -67.8659,0 0,-383.63694 96.1435,0 156.4687,286.97254 1.8852,0 c -2.8278,-50.34621 -3.7704,-84.58142 -3.7704,-105.72682 l 0,-181.24572 68.8086,0 0,383.63694 z m 303.5116,-106.73371 c 0,34.23531 -11.311,61.42221 -34.8756,81.56071 -23.5646,20.1383 -55.6124,30.2076 -97.086,30.2076 -38.646,0 -72.5788,-8.0554 -101.799,-23.1591 l 0,-75.5191 c 24.5072,11.076 45.2441,20.1383 61.2681,24.1661 16.9663,5.0345 32.0478,7.0484 46.1864,7.0484 16.9666,0 29.22,-3.0208 38.6459,-10.0693 9.4258,-7.0484 13.1961,-17.1176 13.1961,-30.2075 0,-7.04851 -1.8851,-14.09711 -5.6555,-20.13851 -3.7702,-6.0415 -9.4258,-11.0762 -16.9665,-17.1177 -7.5406,-5.0344 -23.5645,-14.0968 -46.1864,-26.17991 -21.6795,-11.0763 -38.6459,-21.1453 -49.0144,-31.2145 -11.3111,-10.0693 -19.7941,-22.15231 -26.3923,-35.24231 -6.5981,-13.0901 -9.4258,-29.2007 -9.4258,-47.3254 0,-34.23534 10.3684,-60.41528 32.0478,-79.54665 21.6795,-19.13148 50.8995,-29.20076 89.5453,-29.20076 18.8517,0 36.7608,2.01388 53.7273,7.04846 16.9665,5.0347 34.8754,11.07609 52.7846,20.13842 l -24.5071,63.4361 c -18.8517,-8.05552 -34.8757,-14.09703 -47.1292,-17.1176 -12.2535,-3.02082 -24.5072,-5.0347 -36.7606,-5.0347 -14.1389,0 -25.4499,4.02776 -32.9904,11.07609 -7.5407,7.04845 -11.3111,16.11079 -11.3111,28.19394 0,7.04834 1.8852,13.0899 4.713,19.1314 2.8277,5.0347 8.4833,10.0692 15.0812,15.1039 6.5981,5.0345 22.6221,14.0968 48.0718,27.1868 33.9328,17.11761 56.555,34.23531 68.8084,51.35291 12.2537,17.11761 18.8518,38.26311 18.8518,63.43611 z"
       id="path39"
       inkscape:connector-curvature="0"
       style="fill:#ffffff;fill-rule:nonzero;opacity:1;fill-opacity:1" /><path
       class="fil4"
       d="m 3136.9328,1104.1747 -76.3492,0 0,-315.16626 -98.0286,0 0,-67.46386 271.4638,0 0,67.46386 -98.0286,0 0,315.16626 z m 153.641,0 0,-383.63694 76.3492,0 0,383.63694 -76.3492,0 z m 305.3966,0 -76.349,0 0,-315.16626 -98.0287,0 0,-67.46386 271.4638,0 0,67.46386 -98.0285,0 0,315.16626 z"
       id="path41"
       inkscape:connector-curvature="0"
       style="fill:#ffffff;fill-rule:nonzero;opacity:1;fill-opacity:1" /><path
       class="fil4"
       d="m 4040.8696,720.53776 0,247.70263 c 0,28.1937 -5.6555,53.36671 -17.9092,74.51221 -12.2534,21.1452 -29.22,37.2559 -51.8419,49.339 -22.6222,11.0762 -49.0143,17.1177 -79.1771,17.1177 -46.1865,0 -82.0046,-13.09 -107.4543,-38.263 -25.4498,-25.1729 -38.6459,-59.4084 -38.6459,-103.71291 l 0,-246.69563 76.3492,0 0,234.61253 c 0,29.2009 5.6553,51.35301 16.9664,65.44981 11.3111,14.0971 29.22,21.1455 55.6124,21.1455 24.5071,0 43.3588,-7.0484 54.6697,-21.1455 11.3111,-14.0968 16.9666,-35.24201 16.9666,-65.44981 l 0,-234.61253 76.3493,0 z"
       id="path43"
       inkscape:connector-curvature="0"
       style="fill:#ffffff;fill-rule:nonzero;opacity:1;fill-opacity:1" /><polygon
       class="fil4"
       points="4318,906 4214,906 4214,1219 4133,1219 4133,906 4030,906 4030,838 4318,838 "
       id="polygon45"
       style="fill:#ffffff;fill-rule:nonzero;opacity:1;fill-opacity:1"
       transform="matrix(0.94258267,0,0,1.0069215,298.81628,-123.26253)" /><path
       class="fil4"
       d="m 4750.6342,911.85278 c 0,63.43601 -15.0813,111.76812 -44.3013,146.00352 -29.2202,34.2353 -71.6363,51.353 -127.2486,51.353 -54.6698,0 -97.0861,-17.1177 -127.2487,-51.353 -29.2201,-34.2354 -44.3015,-82.56751 -44.3015,-147.01052 0,-63.43591 15.0814,-112.77526 44.3015,-146.00365 29.22,-33.2284 71.6363,-50.34601 127.2487,-50.34601 55.6123,0 97.086,17.11761 126.306,51.35295 29.22,34.23533 44.3013,82.5677 44.3013,146.00371 z m -262.0379,0 c 0,42.29051 7.5407,74.51201 22.6219,96.66442 15.0813,22.1522 37.7034,32.2215 68.8087,32.2215 60.3252,0 91.4304,-43.29771 91.4304,-128.88592 0,-86.59537 -30.1626,-129.89292 -90.488,-129.89292 -30.1626,0 -52.7846,11.07609 -68.8085,32.22158 -15.0812,22.15223 -22.6219,54.37363 -22.6219,96.66434 z m 542.9276,192.32192 -75.4065,0 0,-383.63694 206.4255,0 0,66.4568 -131.019,0 0,98.67821 121.5931,0 0,66.45692 -121.5931,0 0,151.03811 z"
       id="path47"
       inkscape:connector-curvature="0"
       style="fill:#ffffff;fill-rule:nonzero;opacity:1;fill-opacity:1" /><path
       class="fil4"
       d="m 5440.6048,1104.1747 -207.3683,0 0,-383.63694 207.3683,0 0,66.4568 -131.019,0 0,84.58131 121.5931,0 0,66.45681 -121.5931,0 0,98.67832 131.019,0 0,67.4637 z m 373.2626,-195.34272 c 0,63.43601 -16.9662,111.76812 -50.8994,144.99652 -33.9331,33.2286 -82.0046,50.3462 -146.1002,50.3462 l -101.799,0 0,-383.63694 113.1099,0 c 58.4403,0 104.6266,16.11067 136.6745,49.33907 32.048,33.22839 49.0142,79.54674 49.0142,137.94825 z m -79.1769,2.0138 c 0,-82.56755 -33.933,-123.85122 -101.7989,-123.85122 l -40.5309,0 0,249.71644 32.9904,0 c 73.5214,0 110.2818,-42.29071 110.2818,-125.86522 z m 361.0092,193.32892 -207.3681,0 0,-383.63694 207.3681,0 0,66.4568 -131.019,0 0,84.58131 121.5932,0 0,66.45681 -121.5932,0 0,98.67832 131.019,0 0,67.4637 z m 151.7559,-213.46722 24.507,0 c 24.5071,0 41.4737,-4.02771 53.7274,-13.09011 11.3108,-9.0623 16.9665,-22.1521 16.9665,-40.2768 0,-18.12456 -5.6557,-31.21453 -17.9094,-38.26311 -11.3108,-8.05539 -30.1626,-11.07596 -54.6697,-11.07596 l -23.5646,0 0,103.71298 z m 0,66.45661 0,147.01061 -76.3491,0 0,-383.63694 104.6265,0 c 49.0141,0 84.8326,9.06209 108.3971,28.1937 23.5644,19.13149 34.8756,47.32543 34.8756,86.59521 0,22.1524 -5.6556,42.2907 -17.9094,60.41531 -11.3109,17.1177 -28.2774,31.2144 -49.014,41.2837 53.7273,86.59522 89.5452,141.97602 105.569,167.14902 l -84.8324,0 -85.7748,-147.01061 -40.5313,0 z"
       id="path49"
       inkscape:connector-curvature="0"
       style="fill:#ffffff;fill-rule:nonzero;opacity:1;fill-opacity:1" /><path
       class="fil4"
       d="m 6722.5171,1104.1747 -26.3923,-91.6298 -131.0189,0 -26.3922,91.6298 -82.0049,0 127.2489,-384.64388 93.3154,0 127.2488,384.64388 -82.0048,0 z m -44.3013,-159.09361 c -24.507,-82.56752 -37.7033,-129.89284 -40.5312,-139.96199 -2.8277,-11.07621 -5.6552,-19.13148 -6.5981,-26.17994 -5.6552,22.15218 -20.7366,77.53301 -46.1863,166.14193 l 93.3156,0 z"
       id="path51"
       inkscape:connector-curvature="0"
       style="fill:#ffffff;fill-rule:nonzero;opacity:1;fill-opacity:1" /><polygon
       class="fil4"
       points="7191,1152 7191,1219 6955,1219 6955,838 7036,838 7036,1152 "
       id="polygon53"
       style="fill:#ffffff;fill-rule:nonzero;opacity:1;fill-opacity:1"
       transform="matrix(0.94258267,0,0,1.0069215,298.81628,-123.26253)" /><path
       class="fil4"
       d="m 2265.0439,1579.4416 -92.3732,-256.765 -1.8852,0 c 1.8852,20.1385 2.8278,44.3046 2.8278,72.4984 l 0,184.2666 -29.22,0 0,-289.9934 47.129,0 85.775,238.6404 1.8852,0 86.7177,-238.6404 47.1291,0 0,289.9934 -32.0479,0 0,-186.2805 c 0,-21.1453 0.9426,-44.3046 2.8278,-69.4776 l -1.8852,0 -93.3156,256.765 -25.4497,0 z m 344.0427,0 -5.6556,-31.2146 -1.8851,0 c -10.3685,14.097 -20.737,23.1593 -30.1628,27.187 -10.3683,5.0345 -22.622,7.0484 -37.7033,7.0484 -19.7941,0 -35.8181,-6.0414 -47.129,-17.1176 -11.3111,-11.0762 -16.9666,-27.1869 -16.9666,-47.3255 0,-44.3043 32.9904,-66.4568 98.9713,-68.4706 l 34.8755,-1.007 0,-13.0898 c 0,-17.1178 -3.7703,-29.2008 -10.3684,-37.2562 -6.5982,-8.0554 -17.9091,-12.083 -32.9904,-12.083 -16.9665,0 -35.8182,6.0415 -57.4976,17.1177 l -9.4259,-25.173 c 10.3685,-6.0416 20.737,-10.0693 32.9905,-14.097 12.2535,-3.0207 23.5645,-5.0346 35.8181,-5.0346 24.5071,0 42.4163,6.0415 53.7272,17.1177 11.311,11.0761 17.9092,30.2076 17.9092,55.3807 l 0,148.0174 -22.6222,0 z m -69.7513,-23.1592 c 18.8517,0 33.933,-6.0415 45.244,-17.1176 11.311,-11.0762 16.024,-27.187 16.024,-47.3254 l 0,-19.1314 -31.1052,1.007 c -24.5072,1.0067 -42.4163,5.0344 -52.7847,12.0829 -11.311,7.0484 -16.024,18.1247 -16.024,33.2284 0,12.0831 3.7704,21.1455 10.3685,27.1869 6.5981,6.0415 16.0239,9.0623 28.2774,9.0623 z m 221.5071,0 c 5.6553,0 10.3682,0 16.0238,-1.0069 4.7129,-1.0069 9.4258,-2.0139 12.2536,-3.0208 l 0,25.173 c -3.7703,2.0139 -8.4833,3.0208 -15.0814,4.0277 -6.5981,1.007 -12.2534,2.0139 -17.909,2.0139 -39.5885,0 -59.3827,-22.1523 -59.3827,-66.4569 l 0,-128.886 -29.2201,0 0,-16.1106 29.2201,-14.0969 13.1961,-46.3185 17.9091,0 0,50.3462 59.3827,0 0,25.173 -59.3827,0 0,127.879 c 0,13.09 2.8278,23.1593 8.4832,30.2076 5.6555,7.0485 14.1388,10.0693 23.5647,10.0693 z m 244.1287,-85.5882 c 0,35.2422 -8.4832,63.4361 -25.4497,82.5674 -16.9664,20.1386 -39.5884,30.2077 -69.751,30.2077 -17.9092,0 -33.9331,-5.0347 -48.0718,-14.0969 -14.1387,-9.0623 -25.4498,-22.1523 -32.9904,-39.2699 -7.5406,-17.1177 -11.3109,-37.2562 -11.3109,-59.4083 0,-35.2423 8.4831,-63.4361 24.5071,-82.5678 16.9664,-20.1383 39.5885,-29.2006 68.8086,-29.2006 28.2775,0 50.8994,10.0693 67.866,30.2076 16.9663,20.1385 25.4495,47.3254 25.4495,81.5608 z m -155.526,0 c 0,28.1938 5.6554,48.3321 16.0239,63.4361 10.3683,14.0967 25.4496,22.1521 46.1866,22.1521 19.7941,0 35.8179,-7.0484 46.1864,-21.1453 10.3685,-14.0969 16.024,-35.2423 16.024,-63.436 0,-27.1869 -5.6555,-48.3324 -16.024,-63.4361 -10.3685,-14.0969 -26.3923,-21.1454 -46.1864,-21.1454 -19.7944,0 -35.8183,7.0485 -45.244,21.1454 -10.3685,14.0969 -15.0815,35.2421 -15.0815,63.4361 z m 431.7029,-43.2977 92.3729,0 0,140.969 c -14.1386,5.0347 -29.22,9.0622 -44.3012,11.0761 -15.0814,2.0138 -32.0479,4.0277 -51.8421,4.0277 -41.4737,0 -73.5215,-13.09 -96.1435,-39.27 -22.622,-26.18 -33.933,-62.4292 -33.933,-109.7544 0,-30.2075 5.6556,-56.3875 16.9665,-79.5469 11.3111,-22.1521 27.3349,-40.2768 49.0144,-52.3597 21.6793,-12.0832 46.1864,-18.1246 74.464,-18.1246 29.22,0 55.6123,6.0414 81.0622,17.1176 l -12.2537,30.2076 c -24.5072,-11.0762 -48.0718,-17.1177 -70.6937,-17.1177 -32.9905,0 -59.3828,10.0693 -77.2917,31.2145 -18.8518,21.1455 -28.2776,50.3463 -28.2776,87.6023 0,39.27 8.4832,68.4707 26.3924,88.6091 17.909,20.1383 44.3012,30.2076 79.1769,30.2076 18.8517,0 36.7607,-2.0138 55.6123,-7.0485 l 0,-89.6159 -60.3251,0 0,-30.2077 z m 246.0139,-69.4776 c 9.4259,0 16.9666,1.0069 24.5073,2.0138 l -4.7129,30.2076 c -8.4833,-2.0139 -16.024,-3.0207 -22.6222,-3.0207 -16.0238,0 -30.1626,7.0485 -42.416,21.1454 -11.3111,14.0969 -17.9092,32.2213 -17.9092,53.3668 l 0,116.8028 -31.1051,0 0,-217.4949 25.4497,0 3.7702,40.2768 1.8852,0 c 7.5407,-14.0969 16.9666,-25.173 27.3348,-33.2284 10.3685,-8.0554 22.6222,-11.0762 34.8756,-11.0762 z m 230.9328,112.7753 c 0,35.2422 -8.4833,63.4361 -25.4497,82.5674 -16.9665,20.1386 -39.5885,30.2077 -69.7511,30.2077 -17.9092,0 -33.933,-5.0347 -48.0718,-14.0969 -14.1387,-9.0623 -25.4497,-22.1523 -32.9903,-39.2699 -7.5407,-17.1177 -11.311,-37.2562 -11.311,-59.4083 0,-35.2423 8.4833,-63.4361 24.5072,-82.5678 16.9663,-20.1383 39.5885,-29.2006 68.8085,-29.2006 28.2774,0 50.8994,10.0693 67.8659,30.2076 16.9664,20.1385 25.4497,47.3254 25.4497,81.5608 z m -155.5261,0 c 0,28.1938 5.6555,48.3321 16.024,63.4361 10.3683,14.0967 25.4495,22.1521 46.1865,22.1521 19.7941,0 35.8181,-7.0484 46.1864,-21.1453 10.3685,-14.0969 16.024,-35.2423 16.024,-63.436 0,-27.1869 -5.6555,-48.3324 -16.024,-63.4361 -10.3683,-14.0969 -26.3923,-21.1454 -46.1864,-21.1454 -19.7944,0 -35.8182,7.0485 -46.1865,21.1454 -10.3685,14.0969 -15.0814,35.2421 -15.0814,63.4361 z m 340.2723,49.339 c 0,20.1386 -6.598,36.2492 -20.7367,46.3185 -14.1388,11.076 -33.933,16.1107 -59.3829,16.1107 -27.3348,0 -48.0716,-5.0347 -63.153,-14.0969 l 0,-30.2076 c 9.4259,5.0344 20.7369,9.0622 31.1052,12.083 11.3111,3.0207 21.6795,5.0346 32.0478,5.0346 16.024,0 28.2777,-3.0208 36.7609,-8.0554 8.4832,-5.0347 13.1961,-14.0969 13.1961,-25.173 0,-8.0554 -3.7704,-16.1107 -10.3685,-22.1523 -6.598,-6.0415 -20.7367,-13.09 -40.5311,-21.1454 -18.8515,-7.0483 -32.0478,-14.0968 -40.5309,-20.1384 -7.5407,-6.0415 -14.1388,-12.0829 -17.9091,-19.1316 -3.7704,-7.0483 -5.6556,-16.1107 -5.6556,-25.173 0,-18.1244 6.5981,-31.2145 19.7944,-42.2906 13.196,-10.0692 32.0478,-15.1039 55.6123,-15.1039 21.6794,0 43.3587,5.0347 64.0957,14.0971 l -11.3111,27.1867 c -20.7368,-9.0623 -38.6458,-13.09 -55.6124,-13.09 -15.0812,0 -25.4497,2.0139 -32.9904,7.0485 -7.5407,5.0346 -11.3108,12.0832 -11.3108,20.1386 0,6.0413 0.9426,11.0759 3.7701,15.1037 2.8278,4.0277 7.5407,8.0554 13.1963,12.0829 6.5981,4.0277 17.9089,9.0623 35.8181,16.1109 24.5071,9.0623 40.531,19.1314 49.0143,28.1937 8.4833,9.0623 13.1961,21.1455 13.1961,36.2492 z m 181.9186,0 c 0,20.1386 -6.5982,36.2492 -20.737,46.3185 -14.1387,11.076 -33.933,16.1107 -59.3827,16.1107 -27.3349,0 -48.0717,-5.0347 -63.1531,-14.0969 l 0,-30.2076 c 9.4259,5.0344 20.737,9.0622 31.1052,12.083 11.3111,3.0207 21.6796,5.0346 32.0479,5.0346 16.0239,0 28.2775,-3.0208 36.7608,-8.0554 8.4832,-5.0347 13.1961,-14.0969 13.1961,-25.173 0,-8.0554 -3.7703,-16.1107 -10.3685,-22.1523 -6.598,-6.0415 -20.7367,-13.09 -40.5308,-21.1454 -18.8518,-7.0483 -32.0478,-14.0968 -40.5311,-20.1384 -7.5407,-6.0415 -14.1389,-12.0829 -17.9092,-19.1316 -3.7704,-7.0483 -5.6554,-16.1107 -5.6554,-25.173 0,-18.1244 6.598,-31.2145 19.7942,-42.2906 13.196,-10.0692 32.0478,-15.1039 55.6123,-15.1039 21.6796,0 43.3589,5.0347 64.0957,14.0971 l -11.311,27.1867 c -20.7369,-9.0623 -38.646,-13.09 -55.6124,-13.09 -15.0813,0 -25.4497,2.0139 -32.9904,7.0485 -7.5405,5.0346 -11.3109,12.0832 -11.3109,20.1386 0,6.0413 0.9426,11.0759 3.7704,15.1037 2.8275,4.0277 7.5405,8.0554 13.196,12.0829 6.5981,4.0277 17.9092,9.0623 35.8181,16.1109 24.5071,9.0623 40.531,19.1314 49.0143,28.1937 8.4833,9.0623 13.1963,21.1455 13.1963,36.2492 z m 226.2196,-49.339 c 0,35.2422 -8.4831,63.4361 -25.4497,82.5674 -16.9663,20.1386 -39.5885,30.2077 -69.7511,30.2077 -17.9091,0 -33.933,-5.0347 -48.0717,-14.0969 -14.1386,-9.0623 -25.4497,-22.1523 -32.9904,-39.2699 -7.5407,-17.1177 -11.3108,-37.2562 -11.3108,-59.4083 0,-35.2423 8.483,-63.4361 24.5071,-82.5678 16.9663,-20.1383 39.5885,-29.2006 68.8084,-29.2006 28.2774,0 50.8996,10.0693 67.866,30.2076 16.9665,20.1385 25.4496,47.3254 25.4496,81.5608 z m -155.5259,0 c 0,28.1938 5.6553,48.3321 16.0238,63.4361 10.3683,14.0967 25.4496,22.1521 46.1865,22.1521 19.7942,0 35.8181,-7.0484 46.1866,-21.1453 10.3685,-14.0969 16.0238,-35.2423 16.0238,-63.436 0,-27.1869 -5.6553,-48.3324 -16.0238,-63.4361 -10.3685,-14.0969 -26.3924,-21.1454 -46.1866,-21.1454 -19.7943,0 -35.8182,7.0485 -45.2439,21.1454 -10.3685,14.0969 -15.0815,35.2421 -15.0815,63.4361 z"
       id="path55"
       inkscape:connector-curvature="0"
       style="fill:#ffffff;fill-rule:nonzero;opacity:1;fill-opacity:1" /><path
       class="fil4"
       d="m 2261.2735,1776.7982 c -30.1627,0 -53.7272,10.0693 -70.6938,32.2214 -16.9664,21.1455 -26.3923,50.3463 -26.3923,86.5954 0,38.2631 8.4833,67.4636 25.4497,87.6021 16.9666,20.1385 40.5311,31.2146 71.6364,31.2146 18.8516,0 40.5311,-4.0277 65.0382,-11.0761 l 0,29.2006 c -18.8518,7.0485 -42.4163,11.0762 -69.7511,11.0762 -39.5884,0 -70.6939,-13.0901 -92.3732,-39.2699 -21.6793,-26.1799 -32.9904,-62.4291 -32.9904,-110.7614 0,-30.2076 5.6556,-56.3876 16.024,-78.5398 10.3683,-22.1523 25.4497,-39.2701 45.2439,-52.3599 19.7943,-12.0832 43.3588,-18.1247 69.7512,-18.1247 28.2774,0 53.7271,6.0415 74.4641,17.1178 l -13.1963,29.2006 c -20.7367,-10.0692 -41.4737,-15.1039 -61.2678,-15.1039 z m 244.1289,263.8134 -5.6556,-31.2145 -1.8851,0 c -10.3683,14.0969 -20.7368,23.1591 -30.1627,27.1869 -10.3682,5.0345 -22.6219,7.0484 -37.7033,7.0484 -19.7942,0 -35.8182,-6.0415 -47.1291,-17.1176 -11.311,-11.0762 -16.9664,-27.187 -16.9664,-47.3254 0,-44.3044 32.9903,-66.4568 98.9711,-68.4706 l 34.8755,-1.007 0,-13.0899 c 0,-17.1177 -3.7703,-29.2009 -10.3682,-37.256 -6.5982,-8.0555 -17.9092,-12.0832 -32.9904,-12.0832 -16.9666,0 -35.8183,6.0416 -57.4977,17.1178 l -9.4258,-25.1732 c 10.3684,-6.0413 20.7368,-10.0691 32.9904,-14.0969 12.2535,-3.0207 23.5646,-5.0345 35.818,-5.0345 24.5073,0 42.4163,6.0415 53.7274,17.1176 11.3109,11.0762 17.9091,30.2075 17.9091,55.3808 l 0,148.0173 -22.6221,0 z m -69.7512,-23.1591 c 18.8518,0 33.933,-6.0415 45.2441,-17.1177 11.3108,-11.0761 16.0238,-27.1869 16.0238,-47.3252 l 0,-19.1315 -31.1052,1.0069 c -24.5071,1.007 -42.4162,5.0345 -52.7846,12.0829 -11.311,7.0485 -16.024,18.1246 -16.024,33.2284 0,12.0832 3.7704,21.1454 10.3685,27.1869 6.5981,6.0416 16.0239,9.0623 28.2774,9.0623 z m 415.6789,23.1591 0,-140.9689 c 0,-17.1177 -3.7702,-30.2078 -10.3683,-39.27 -6.5982,-9.0623 -17.909,-13.09 -32.0478,-13.09 -18.8516,0 -32.9904,6.0416 -42.4163,17.1178 -9.4257,12.0829 -14.1386,30.2075 -14.1386,54.3736 l 0,120.8306 -31.1052,0 0,-140.9689 c 0,-17.1177 -3.7704,-30.2078 -10.3685,-39.2699 -6.5981,-9.0623 -17.9091,-13.0901 -32.0478,-13.0901 -19.7943,0 -33.9331,6.0415 -42.4162,18.1247 -8.4833,12.0829 -13.1962,32.2214 -13.1962,60.4152 l 0,113.782 -31.1052,0 0,-217.4949 25.4497,0 4.7129,30.2076 1.8852,0 c 5.6555,-11.0761 14.1388,-19.1314 24.5071,-25.173 10.3684,-6.0415 22.6221,-9.0624 35.8181,-9.0624 32.0479,0 52.7847,12.0832 62.2105,37.2562 l 1.8852,0 c 5.6555,-11.0762 15.0812,-20.1386 26.3923,-27.1869 11.311,-7.0484 24.5071,-10.0693 39.5885,-10.0693 22.6219,0 40.531,6.0417 51.8421,19.1315 11.3109,13.0901 16.9663,33.2284 16.9663,60.4154 l 0,141.9758 -31.1052,0 z m 189.4592,4.0278 c -13.1962,0 -25.4497,-3.0209 -36.7608,-8.0554 -11.3109,-5.0347 -19.7941,-13.09 -27.3347,-24.1662 l -1.8852,0 c 1.8852,13.0901 1.8852,25.1731 1.8852,36.2492 l 0,89.616 -31.1052,0 0,-314.1594 25.4496,0 4.713,30.2076 1.8852,0 c 7.5406,-12.0832 16.9663,-20.1386 27.3347,-26.1799 10.3685,-5.0346 22.622,-8.0554 35.8182,-8.0554 27.3348,0 48.0718,10.0692 62.2104,29.2007 15.0814,20.1383 21.6795,47.3253 21.6795,82.5676 0,35.2422 -7.5407,63.4361 -22.6221,83.5744 -15.0812,20.1384 -35.8179,29.2008 -62.2104,29.2008 z m -4.713,-197.3567 c -20.7367,0 -35.818,6.0416 -45.2439,18.1247 -9.4258,12.0829 -14.1386,32.2215 -14.1386,58.4014 l 0,7.0483 c 0,30.2076 4.7128,52.36 14.1386,65.4499 9.4259,13.0901 24.5072,20.1385 46.1865,20.1385 17.9092,0 31.1052,-8.0554 41.4737,-23.1591 10.3685,-15.1038 15.0814,-36.2492 15.0814,-62.4293 0,-27.1868 -4.7129,-48.3321 -15.0814,-62.4291 -10.3685,-14.0968 -23.5645,-21.1453 -42.4163,-21.1453 z m 171.5502,-24.166 0,140.9688 c 0,18.1247 3.7703,31.2148 11.3111,39.2701 7.5404,9.0622 19.7941,13.0899 35.8179,13.0899 21.6795,0 36.7607,-6.0415 47.1292,-18.1246 9.4258,-12.0829 15.0813,-32.2215 15.0813,-60.4153 l 0,-113.782 31.1052,0 0,217.4949 -25.4497,0 -4.7129,-29.2007 -1.8852,0 c -6.5981,11.0762 -15.0813,19.1315 -26.3922,24.1662 -11.311,6.0415 -23.5646,8.0554 -38.6461,8.0554 -24.5071,0 -43.3586,-6.0417 -55.6123,-19.1315 -12.2535,-12.0831 -18.8515,-32.2215 -18.8515,-60.4154 l 0,-141.9758 31.1052,0 z m 335.5594,158.0866 c 0,20.1384 -6.5981,36.2492 -20.7367,46.3185 -14.1389,11.0759 -33.9331,16.1106 -59.3829,16.1106 -27.3347,0 -48.0717,-5.0347 -63.1529,-14.0968 l 0,-30.2078 c 9.4257,5.0347 20.7367,9.0623 31.1052,12.0832 11.311,3.0207 21.6793,5.0345 32.0477,5.0345 16.024,0 28.2774,-3.0207 36.7607,-8.0554 8.4833,-5.0345 13.1963,-14.0967 13.1963,-25.173 0,-8.0553 -3.7704,-16.1107 -10.3685,-22.1524 -6.5981,-6.0414 -20.7367,-13.0898 -40.5311,-21.1452 -18.8517,-7.0484 -32.0477,-14.0968 -40.531,-20.1385 -7.5407,-6.0415 -14.1388,-12.083 -17.9092,-19.1313 -3.7701,-7.0486 -5.6553,-16.1108 -5.6553,-25.1731 0,-18.1246 6.5979,-31.2147 19.7942,-42.2906 13.1962,-10.0693 32.0478,-15.104 55.6124,-15.104 21.6793,0 43.3588,5.0347 64.0956,14.097 l -11.3111,27.1869 c -20.7367,-9.0623 -38.6458,-13.0901 -55.6123,-13.0901 -15.0813,0 -25.4498,2.0139 -32.9904,7.0485 -7.5406,5.0347 -11.3109,12.0831 -11.3109,20.1384 0,6.0415 0.9426,11.0762 3.7703,15.1038 2.8278,4.0278 7.5406,8.0554 13.196,12.0832 6.5982,4.0275 17.9091,9.0621 35.8183,16.1107 24.5071,9.0623 40.5311,19.1316 49.0142,28.1937 8.4833,9.0623 13.1962,21.1453 13.1962,36.2492 z m 324.2484,59.4083 -33.933,-91.6298 -109.3396,0 -32.9903,91.6298 -32.0478,0 107.4543,-291.0003 26.3924,0 106.5119,291.0003 -32.9905,0 z m -43.3587,-122.8443 -32.0479,-89.616 c -3.7704,-11.0763 -8.4832,-25.1732 -12.2536,-42.2908 -2.8277,13.0901 -6.5981,26.18 -11.311,42.2908 l -32.0477,89.616 87.6602,0 z m 153.6409,122.8443 -77.2919,-217.4949 32.9905,0 44.3014,128.8859 c 10.3683,30.2076 16.0239,49.3391 17.9091,58.4014 l 1.8851,0 c 0.9426,-7.0484 5.6556,-21.1453 13.1963,-43.2976 7.5405,-22.1523 23.5645,-69.4775 49.0142,-143.9897 l 32.9903,0 -77.2918,217.4949 -35.818,0 z m 271.4638,0 -5.6555,-31.2145 -1.8852,0 c -10.3684,14.0969 -20.7369,23.1591 -30.1626,27.1869 -10.3685,5.0345 -22.622,7.0484 -37.7034,7.0484 -19.7941,0 -35.8181,-6.0415 -47.1291,-17.1176 -11.3109,-11.0762 -16.9665,-27.187 -16.9665,-47.3254 0,-44.3044 32.9904,-66.4568 98.9712,-68.4706 l 34.8756,-1.007 0,-13.0899 c 0,-17.1177 -3.7704,-29.2009 -10.3684,-37.256 -6.598,-8.0555 -17.9091,-12.0832 -32.9905,-12.0832 -16.9664,0 -35.8179,6.0416 -57.4975,17.1178 l -9.4259,-25.1732 c 10.3685,-6.0413 20.737,-10.0691 32.9904,-14.0969 12.2537,-3.0207 23.5647,-5.0345 35.8182,-5.0345 24.5073,0 42.4162,6.0415 53.7272,17.1176 11.3111,11.0762 17.9092,30.2075 17.9092,55.3808 l 0,148.0173 -22.622,0 z m -69.7511,-23.1591 c 18.8515,0 33.9329,-6.0415 45.2439,-17.1177 11.3111,-11.0761 16.0239,-27.1869 16.0239,-47.3252 l 0,-19.1315 -31.1052,1.0069 c -24.5071,1.007 -42.4163,5.0345 -52.7846,12.0829 -11.311,7.0485 -16.024,18.1246 -16.024,33.2284 0,12.0832 3.7704,21.1454 10.3685,27.1869 6.5981,6.0416 16.0238,9.0623 28.2775,9.0623 z m 295.0283,23.1591 0,-139.9619 c 0,-18.1247 -3.7704,-31.2148 -11.3109,-39.2701 -7.5407,-9.0623 -19.7943,-13.0899 -35.8181,-13.0899 -21.6796,0 -36.7609,6.0415 -47.1291,18.1246 -9.4259,12.083 -15.0815,32.2215 -15.0815,60.4153 l 0,113.782 -31.1052,0 0,-217.4949 25.4497,0 4.713,30.2076 1.8851,0 c 6.5982,-11.0763 15.0815,-19.1317 26.3923,-25.173 11.3111,-6.0416 24.5072,-9.0624 37.7033,-9.0624 24.5072,0 43.3588,6.0415 55.6124,19.1315 12.2537,13.09 18.8516,33.2284 18.8516,60.4154 l 0,141.9758 -31.1052,0 z m 175.3205,4.0278 c -29.2203,0 -52.7847,-10.0693 -68.8087,-29.2008 -16.0238,-19.1316 -24.507,-46.3184 -24.507,-82.5675 0,-36.2492 8.4832,-64.4431 24.507,-84.5814 16.024,-20.1384 39.5884,-30.2077 69.7513,-30.2077 9.4257,0 19.7941,1.0069 29.2199,3.0208 9.4259,2.0139 17.9091,5.0346 22.622,8.0554 l -9.4259,28.1938 c -6.598,-3.0208 -14.1387,-5.0347 -22.6219,-7.0484 -8.4833,-2.0139 -15.0814,-3.0209 -21.6793,-3.0209 -41.4737,0 -62.2105,28.1939 -62.2105,84.5815 0,27.1869 4.7128,47.3252 15.0813,61.4222 10.3685,14.0968 25.4497,21.1453 45.244,21.1453 16.9664,0 33.933,-4.0277 51.842,-12.0831 l 0,29.2007 c -13.1962,7.0484 -31.1052,11.0762 -51.842,11.0762 z m 27.3347,53.3669 c 0,13.0899 -4.7128,23.1591 -14.1387,29.2005 -9.4259,7.0485 -23.5645,10.0693 -42.4163,10.0693 -6.5979,0 -12.2534,-1.0069 -17.9089,-2.0139 l 0,-21.1452 c 5.6555,1.0068 12.2536,2.0137 19.7941,2.0137 9.4259,0 16.9666,-1.0069 22.6221,-4.0276 4.713,-3.0208 7.5408,-7.0485 7.5408,-15.1037 0,-6.0418 -2.8278,-10.0693 -7.5408,-14.0971 -4.7129,-3.0207 -14.1388,-6.0415 -27.3348,-9.0623 l 16.0238,-35.2423 20.7367,0 -10.3682,23.1594 c 22.6219,5.0344 32.9902,17.1176 32.9902,34.2353 z m 196.9999,-57.3947 -5.6555,-31.2145 -1.8852,0 c -10.3684,14.0969 -20.7369,23.1591 -30.1625,27.1869 -10.3685,5.0345 -22.6222,7.0484 -37.7034,7.0484 -19.7943,0 -35.8181,-6.0415 -47.1292,-17.1176 -11.3109,-11.0762 -16.9665,-27.187 -16.9665,-47.3254 0,-44.3044 32.9905,-66.4568 98.9713,-68.4706 l 34.8755,-1.007 0,-13.0899 c 0,-17.1177 -3.7704,-29.2009 -10.3684,-37.256 -6.5981,-8.0555 -17.9091,-12.0832 -32.9904,-12.0832 -16.9666,0 -35.8182,6.0416 -57.4975,17.1178 l -9.4259,-25.1732 c 10.3685,-6.0413 20.7368,-10.0691 32.9904,-14.0969 12.2537,-3.0207 23.5645,-5.0345 35.8182,-5.0345 24.5071,0 42.4162,6.0415 53.7272,17.1176 11.311,11.0762 17.909,30.2075 17.909,55.3808 l 0,148.0173 -22.6219,0 z m -69.751,-23.1591 c 18.8515,0 33.9328,-6.0415 45.2438,-17.1177 11.3111,-11.0761 16.0239,-27.1869 16.0239,-47.3252 l 0,-19.1315 -31.1051,1.0069 c -24.5073,1.007 -42.4163,5.0345 -52.7847,12.0829 -11.3109,7.0485 -16.0239,18.1246 -16.0239,33.2284 0,12.0832 3.7704,21.1454 10.3683,27.1869 6.5981,6.0416 16.024,9.0623 28.2777,9.0623 z m 295.0283,-6.0415 -1.8852,0 c -14.1388,22.1522 -35.8181,33.2284 -64.0956,33.2284 -26.3924,0 -47.1291,-10.0693 -62.2105,-29.2008 -15.0812,-19.1316 -22.6219,-47.3253 -22.6219,-82.5675 0,-36.2492 7.5407,-63.4362 22.6219,-83.5745 15.0814,-20.1384 35.8181,-30.2077 62.2105,-30.2077 27.3349,0 49.0142,11.0762 63.153,32.2215 l 2.8278,0 -0.9426,-16.1108 -0.9426,-15.1037 0,-88.6091 31.1052,0 0,308.1179 -25.4497,0 -3.7703,-29.2007 z m -61.268,6.0415 c 20.7369,0 35.8183,-6.0415 46.1866,-18.1247 9.4258,-12.083 14.1388,-32.2214 14.1388,-59.4083 l 0,-7.0484 c 0,-31.2145 -4.713,-52.36 -14.1388,-65.4501 -9.4257,-13.0898 -24.5071,-20.1383 -46.1866,-20.1383 -17.909,0 -32.0478,7.0485 -41.4735,22.1522 -9.4258,15.104 -14.1389,36.2492 -14.1389,63.4362 0,28.1936 4.7131,48.3322 14.1389,62.4292 9.4257,14.0968 23.5645,21.1452 42.4161,21.1452 z m 331.7892,-85.5883 c 0,35.2422 -8.4833,63.4361 -25.4498,82.5675 -16.9665,20.1384 -39.5885,30.2077 -69.7511,30.2077 -17.909,0 -33.933,-5.0347 -48.0716,-14.0971 -14.1388,-9.0622 -25.4499,-22.1522 -32.9905,-39.2698 -7.5406,-17.1177 -11.311,-37.2561 -11.311,-59.4083 0,-35.2423 8.4832,-63.4362 24.5071,-82.5676 16.9666,-20.1384 39.5885,-29.2007 68.8086,-29.2007 28.2774,0 50.8995,10.0692 67.8659,30.2077 16.9665,20.1383 25.4498,47.3253 25.4498,81.5606 z m -155.5262,0 c 0,28.1938 5.6556,48.3321 16.0238,63.4361 10.3685,14.0968 25.4499,22.1522 46.1867,22.1522 19.7942,0 35.8181,-7.0485 46.1865,-21.1455 10.3685,-14.0968 16.024,-35.2423 16.024,-63.4359 0,-27.187 -5.6555,-48.3322 -16.024,-63.4362 -10.3684,-14.0968 -26.3923,-21.1452 -46.1865,-21.1452 -19.7942,0 -35.8182,7.0484 -46.1867,21.1452 -10.3682,14.0971 -15.0812,35.2423 -15.0812,63.4362 z m 529.7315,-39.2699 c 0,47.3252 -12.2536,84.5813 -36.7608,109.7543 -24.507,25.1732 -59.3827,38.263 -104.6268,38.263 l -75.4063,0 0,-289.9934 82.9471,0 c 42.4161,0 75.4065,12.0832 98.0287,37.2562 23.5645,25.173 34.8756,59.4083 34.8756,104.7199 z m -33.9329,1.0068 c 0,-38.263 -8.4833,-66.4568 -26.3922,-85.5883 -17.9094,-19.1315 -44.3016,-29.2007 -79.1773,-29.2007 l -46.1863,0 0,231.5919 38.6459,0 c 37.7032,0 65.9806,-10.0692 84.8325,-29.2007 18.8514,-20.1386 28.2774,-49.3391 28.2774,-87.6022 z m 120.6505,146.0036 -31.1051,0 0,-217.495 31.1051,0 0,217.495 z m -32.9903,-275.8964 c 0,-7.0484 1.8852,-13.0901 5.6555,-16.1108 3.7701,-3.0208 7.5405,-5.0347 13.1961,-5.0347 4.7129,0 9.4258,2.0139 13.1962,5.0347 3.7704,4.0277 5.6552,9.0624 5.6552,16.1108 0,7.0485 -1.8848,13.0899 -5.6552,16.1107 -3.7704,4.0276 -7.5408,5.0346 -13.1962,5.0346 -5.6556,0 -9.426,-2.0139 -13.1961,-5.0346 -3.7703,-4.0278 -5.6555,-9.0622 -5.6555,-16.1107 z m 224.3344,275.8964 -5.6552,-31.2146 -1.8852,0 c -10.3685,14.097 -20.737,23.1592 -30.1626,27.1869 -10.3686,5.0346 -22.6223,7.0485 -37.7033,7.0485 -19.7945,0 -35.8184,-6.0415 -47.1292,-17.1176 -11.311,-11.0762 -16.9666,-27.187 -16.9666,-47.3253 0,-44.3045 32.9903,-66.4569 98.9714,-68.4708 l 34.8755,-1.0068 0,-13.09 c 0,-17.1177 -3.7704,-29.2007 -10.3685,-37.256 -6.5981,-8.0554 -17.9089,-12.0832 -32.9904,-12.0832 -16.9665,0 -35.8182,6.0415 -57.4977,17.1177 l -9.4257,-25.1731 c 10.3684,-6.0414 20.7367,-10.0691 32.9904,-14.0968 12.2536,-3.0208 23.5645,-5.0347 35.8182,-5.0347 24.5071,0 42.4162,6.0415 53.727,17.1176 11.3109,11.0762 17.9091,30.2078 17.9091,55.3809 l 0,148.0173 -22.622,0 z m -69.751,-23.1592 c 18.8517,0 33.9332,-6.0415 45.244,-17.1177 11.311,-11.0761 16.0239,-27.1869 16.0239,-47.3252 l 0,-19.1315 -31.1051,1.007 c -24.5072,1.0069 -42.4164,5.0344 -52.7846,12.0829 -11.311,7.0486 -16.0242,18.1245 -16.0242,33.2284 0,12.0831 3.7704,21.1454 10.3686,27.1869 6.598,6.0415 16.0238,9.0623 28.2774,9.0623 z m 415.6789,23.1592 0,-140.9689 c 0,-17.1177 -3.77,-30.2078 -10.3685,-39.2699 -6.598,-9.0623 -17.909,-13.0901 -32.0475,-13.0901 -18.8518,0 -32.9903,6.0415 -42.4163,17.1177 -9.4259,12.0831 -14.1388,30.2076 -14.1388,54.3738 l 0,120.8304 -31.1053,0 0,-140.9688 c 0,-17.1178 -3.7701,-30.2079 -10.3682,-39.2699 -6.5981,-9.0624 -17.9094,-13.0901 -32.0479,-13.0901 -19.7941,0 -33.933,6.0415 -42.4164,18.1246 -8.483,12.0831 -13.1962,32.2215 -13.1962,60.4153 l 0,113.7821 -31.105,0 0,-217.495 25.4498,0 4.7128,30.2077 1.8852,0 c 5.6553,-11.0763 14.1386,-19.1315 24.5072,-25.1732 10.3685,-6.0415 22.6218,-9.0623 35.8182,-9.0623 32.0476,0 52.7845,12.0832 62.2102,37.2562 l 1.8852,0 c 5.6556,-11.0763 15.0814,-20.1383 26.3924,-27.1869 11.3109,-7.0485 24.5071,-10.0693 39.5883,-10.0693 22.6223,0 40.5312,6.0416 51.8421,19.1315 11.3109,13.0901 16.9665,33.2284 16.9665,60.4154 l 0,141.9759 -31.1051,0 z m 219.6219,0 -5.6555,-31.2146 -1.8852,0 c -10.3685,14.097 -20.7369,23.1592 -30.1626,27.1869 -10.3685,5.0346 -22.6219,7.0485 -37.7032,7.0485 -19.7945,0 -35.8182,-6.0415 -47.1292,-17.1176 -11.3111,-11.0762 -16.9667,-27.187 -16.9667,-47.3253 0,-44.3045 32.9904,-66.4569 98.9715,-68.4708 l 34.8754,-1.0068 0,-13.09 c 0,-17.1177 -3.7704,-29.2007 -10.3685,-37.256 -6.598,-8.0554 -17.9089,-12.0832 -32.9902,-12.0832 -16.9667,0 -35.8184,6.0415 -57.4978,17.1177 l -9.4256,-25.1731 c 10.3685,-6.0414 20.7366,-10.0691 32.9903,-14.0968 12.2535,-3.0208 23.5646,-5.0347 35.8183,-5.0347 24.507,0 42.416,6.0415 53.727,17.1176 11.3109,11.0762 17.9092,30.2078 17.9092,55.3809 l 0,148.0173 -22.622,0 z m -69.7513,-23.1592 c 18.8519,0 33.9332,-6.0415 45.2441,-17.1177 11.3109,-11.0761 16.0238,-27.1869 16.0238,-47.3252 l 0,-19.1315 -31.1051,1.007 c -24.5071,1.0069 -42.4161,5.0344 -52.7846,12.0829 -11.3108,7.0486 -16.0241,18.1245 -16.0241,33.2284 0,12.0831 3.7704,21.1454 10.3685,27.1869 6.5981,6.0415 16.0241,9.0623 28.2774,9.0623 z m 295.0286,23.1592 0,-139.962 c 0,-18.1246 -3.7704,-31.2147 -11.311,-39.27 -7.5408,-9.0623 -19.7941,-13.09 -35.8183,-13.09 -21.6794,0 -36.7607,6.0416 -47.1292,18.1247 -10.3681,12.0829 -15.0811,32.2215 -15.0811,60.4153 l 0,113.782 -31.1054,0 0,-217.495 25.4498,0 4.7128,30.2076 1.8852,0 c 6.5982,-11.0761 15.0815,-19.1313 26.3924,-25.173 11.3109,-6.0415 24.507,-9.0623 37.7033,-9.0623 24.5072,0 43.3586,6.0416 55.6123,19.1315 12.2538,13.0901 18.8519,33.2284 18.8519,60.4154 l 0,141.9758 -31.1056,0 z m 160.2392,-23.1592 c 5.6552,0 10.3681,0 16.0237,-1.0069 4.7128,-1.0069 9.4257,-2.0138 12.2536,-3.0208 l 0,25.1731 c -3.7704,2.0138 -8.4832,3.0207 -15.0813,4.0276 -6.5981,1.007 -12.2537,2.0139 -17.9093,2.0139 -39.5883,0 -59.3826,-22.1523 -59.3826,-66.4568 l 0,-128.8859 -29.22,0 0,-16.1107 29.22,-14.097 13.1962,-46.3183 17.9089,0 0,50.346 59.3829,0 0,25.173 -59.3829,0 0,127.8791 c 0,13.0899 2.8279,23.1591 8.4833,30.2075 5.6557,7.0485 14.139,10.0693 23.5646,10.0693 z m 98.971,23.1592 -31.1052,0 0,-217.495 31.1052,0 0,217.495 z m -32.9904,-275.8964 c 0,-7.0484 1.8852,-13.0901 5.6553,-16.1108 3.7704,-3.0208 7.5408,-5.0347 13.1964,-5.0347 4.7128,0 9.4257,2.0139 13.1962,5.0347 3.7702,4.0277 5.6554,9.0624 5.6554,16.1108 0,7.0485 -1.8852,13.0899 -5.6554,16.1107 -3.7705,4.0276 -7.5409,5.0346 -13.1962,5.0346 -5.6556,0 -9.426,-2.0139 -13.1964,-5.0346 -3.7701,-4.0278 -5.6553,-9.0622 -5.6553,-16.1107 z m 238.4732,275.8964 0,-139.962 c 0,-18.1246 -3.77,-31.2147 -11.3108,-39.27 -7.5406,-9.0623 -19.7944,-13.09 -35.8181,-13.09 -21.6794,0 -36.7607,6.0416 -47.1293,18.1247 -10.3685,12.0829 -15.0813,32.2215 -15.0813,60.4153 l 0,113.782 -31.1051,0 0,-217.495 25.4498,0 4.7128,30.2076 1.8852,0 c 6.5981,-11.0761 15.0813,-19.1313 26.3924,-25.173 11.3109,-6.0415 24.507,-9.0623 37.7032,-9.0623 24.5071,0 43.3587,6.0416 55.6124,19.1315 12.2534,13.0901 18.8514,33.2284 18.8514,60.4154 l 0,141.9758 -31.1051,0 z m 269.5786,-108.7476 c 0,35.2423 -8.4829,63.4363 -25.4495,82.5677 -16.9664,20.1384 -39.5884,30.2076 -69.751,30.2076 -17.9094,0 -33.9331,-5.0347 -48.0718,-14.0968 -14.1387,-9.0623 -25.4497,-22.1524 -32.9906,-39.27 -7.5406,-17.1177 -11.311,-37.256 -11.311,-59.4085 0,-35.2421 8.4833,-63.4361 24.5073,-82.5674 16.9664,-20.1384 39.5886,-29.2008 68.8085,-29.2008 28.2774,0 50.8997,10.0693 67.8659,30.2077 16.9666,20.1383 25.4497,47.3253 25.4497,81.5605 z m -155.5258,0 c 0,28.194 5.6556,48.3323 16.0237,63.4363 10.3685,14.0967 25.4498,22.1521 46.1868,22.1521 19.7941,0 35.8179,-7.0484 46.1865,-21.1452 10.3685,-14.097 16.0237,-35.2423 16.0237,-63.4361 0,-27.187 -5.6552,-48.3322 -16.0237,-63.4362 -10.3686,-14.0968 -26.3924,-21.1453 -46.1865,-21.1453 -19.7946,0 -35.8183,7.0485 -46.1868,21.1453 -10.3681,14.097 -15.0814,35.2423 -15.0814,63.4362 z"
       id="path57"
       inkscape:connector-curvature="0"
       style="fill:#ffffff;fill-rule:nonzero;opacity:1;fill-opacity:1" /></g></svg>