<svg xmlns="http://www.w3.org/2000/svg" shape-rendering="geometricPrecision" text-rendering="geometricPrecision" image-rendering="optimizeQuality" fill-rule="evenodd" clip-rule="evenodd" viewBox="0 0 512 512.004"><path fill="#1B1D2C" fill-rule="nonzero" d="M490.901 4.121l17.008 17.007c2.745 2.745 4.091 6.367 4.091 9.959h-.026c.001 3.63-1.374 7.262-4.065 9.954l-.013.013.013.013-32.596 32.596.5.5c3.651 3.651 5.453 8.493 5.454 13.323h.026c0 4.852-1.843 9.709-5.479 13.345L331.242 245.403a1309.381 1309.381 0 01-8.938 8.857c-53.496 52.499-100.31 96.973-146.876 137.009-47.462 40.808-94.687 77.013-148.492 112.417a6.568 6.568 0 01-8.247-.843l-.019.019-.536-.536-11.749 8.998c-1.087.842-2.855.968-3.822.001l-1.851-1.85c-.971-.972-.926-2.65.001-3.822l9.118-11.631-1.096-1.095a6.593 6.593 0 01-.637-8.583C43.46 429.396 79.7 381.878 120.573 334.636c40.184-46.447 84.802-92.567 137.458-145.219 2.901-2.898 5.731-5.763 8.633-8.666L376.462 70.953l-5.87-5.87c-3.639-3.638-9.755-3.638-13.394 0L192.03 230.251c-4.193-2.724-7.37-6.21-8.134-11.466l180.742-189.97c6.999-7.35 18.903-7.175 26.077 0l13.942 13.943 6.543-6.542c3.673-3.673 8.506-5.511 13.333-5.511 4.828 0 9.661 1.839 13.334 5.512l.5.5 32.596-32.596A14.064 14.064 0 01480.932 0c3.609 0 7.223 1.375 9.969 4.121z"/><path fill="#29384C" d="M486.24 8.782l17.008 17.007c2.919 2.92 2.842 7.775 0 10.617l-32.596 32.596-27.624-27.624 32.596-32.596c2.92-2.92 7.697-2.92 10.616 0z"/><path fill="#60C4B2" d="M433.206 40.878l37.946 37.946c4.774 4.774 4.688 12.658.001 17.346L325.362 241.961l-55.289-55.289-.012.013-.005-.004L415.86 40.877c4.774-4.773 12.573-4.773 17.346.001zM265.413 191.333l55.288 55.288c-109.303 107.377-190.366 181.17-297.37 251.58l-9.935-9.935c70.544-109.695 144.51-189.541 252.017-296.933z"/><path fill="#3EA391" d="M433.831 75.863l2.336 2.336c2.153 2.153 2.05 5.761-.004 7.815L303.227 218.95l-10.147-10.147L426.016 75.867c2.145-2.145 5.67-2.149 7.815-.004z"/></svg>